# xmcd
#
# Track frame offsets: 
#        150
#        17955
#        31554
#        46188
#        62043
#        77621
#        95611
#        113511
#        135759
#        153624
#        170184
#        187478
#        202692
#        218181
#
# Disc length: 3136 seconds
#
# Revision: 0
# Processed by: cddbd v1.5.2PL0 Copyright (c) Steve Scherf et al.
# Submitted via: ExactAudioCopy v0.99pb5
#
DISCID=b50c3e0e
DTITLE=David Bisbal - Sin Mirar Atrás
DYEAR=2009
DGENRE=Pop
TTITLE0=Esclavo de sus Besos
TTITLE1=Dame Tu Amor
TTITLE2=Si Falta el Aire
TTITLE3=Sin Mirar Atrás
TTITLE4=Besos de tu Boca
TTITLE5=Sueños Rotos
TTITLE6=Al Andalus
TTITLE7=Cuando Hacemos el Amor
TTITLE8=El Ruido
TTITLE9=24 Horas
TTITLE10=Antes o Después
TTITLE11=Mi Princesa
TTITLE12=Sufrirás (con Pixie Lott)
TTITLE13=Juro que te Amo
EXTD=
EXTT0=
EXTT1=
EXTT2=
EXTT3=
EXTT4=
EXTT5=
EXTT6=
EXTT7=
EXTT8=
EXTT9=
EXTT10=
EXTT11=
EXTT12=
EXTT13=
PLAYORDER=
